<mxfile host="app.diagrams.net" agent="Mozilla/5.0 (Windows NT 10.0; Win64; x64) AppleWebKit/537.36 (KHTML, like Gecko) Chrome/128.0.0.0 Safari/537.36" version="24.7.12">
  <diagram name="Page-1" id="k50eBJlHIXJeMrOZua9W">
    <mxGraphModel dx="1000" dy="497" grid="1" gridSize="10" guides="1" tooltips="1" connect="1" arrows="1" fold="1" page="1" pageScale="1" pageWidth="850" pageHeight="1100" math="0" shadow="0">
      <root>
        <mxCell id="0" />
        <mxCell id="1" parent="0" />
        <mxCell id="Paml40IgewJ3q0cGp1Wi-13" style="edgeStyle=orthogonalEdgeStyle;rounded=0;orthogonalLoop=1;jettySize=auto;html=1;exitX=1;exitY=0.5;exitDx=0;exitDy=0;entryX=0;entryY=0.5;entryDx=0;entryDy=0;" parent="1" source="Paml40IgewJ3q0cGp1Wi-9" target="Paml40IgewJ3q0cGp1Wi-10" edge="1">
          <mxGeometry relative="1" as="geometry" />
        </mxCell>
        <mxCell id="Paml40IgewJ3q0cGp1Wi-19" style="edgeStyle=orthogonalEdgeStyle;rounded=0;orthogonalLoop=1;jettySize=auto;html=1;entryX=0;entryY=0.5;entryDx=0;entryDy=0;" parent="1" source="Paml40IgewJ3q0cGp1Wi-9" target="Paml40IgewJ3q0cGp1Wi-11" edge="1">
          <mxGeometry relative="1" as="geometry" />
        </mxCell>
        <mxCell id="Paml40IgewJ3q0cGp1Wi-9" value="fresher" style="rounded=0;whiteSpace=wrap;html=1;" parent="1" vertex="1">
          <mxGeometry x="70" y="30" width="120" height="60" as="geometry" />
        </mxCell>
        <mxCell id="Paml40IgewJ3q0cGp1Wi-15" style="edgeStyle=orthogonalEdgeStyle;rounded=0;orthogonalLoop=1;jettySize=auto;html=1;exitX=1;exitY=0.5;exitDx=0;exitDy=0;entryX=0;entryY=0.5;entryDx=0;entryDy=0;" parent="1" source="Paml40IgewJ3q0cGp1Wi-10" target="Paml40IgewJ3q0cGp1Wi-12" edge="1">
          <mxGeometry relative="1" as="geometry" />
        </mxCell>
        <mxCell id="Paml40IgewJ3q0cGp1Wi-10" value="register" style="ellipse;whiteSpace=wrap;html=1;" parent="1" vertex="1">
          <mxGeometry x="250" y="30" width="120" height="80" as="geometry" />
        </mxCell>
        <mxCell id="Paml40IgewJ3q0cGp1Wi-30" style="edgeStyle=orthogonalEdgeStyle;rounded=0;orthogonalLoop=1;jettySize=auto;html=1;entryX=0;entryY=0.5;entryDx=0;entryDy=0;" parent="1" source="Paml40IgewJ3q0cGp1Wi-11" target="Paml40IgewJ3q0cGp1Wi-26" edge="1">
          <mxGeometry relative="1" as="geometry">
            <mxPoint x="360" y="460" as="targetPoint" />
            <Array as="points">
              <mxPoint x="250" y="450" />
            </Array>
          </mxGeometry>
        </mxCell>
        <mxCell id="Paml40IgewJ3q0cGp1Wi-38" style="edgeStyle=orthogonalEdgeStyle;rounded=0;orthogonalLoop=1;jettySize=auto;html=1;entryX=0;entryY=0.5;entryDx=0;entryDy=0;" parent="1" source="Paml40IgewJ3q0cGp1Wi-11" target="Paml40IgewJ3q0cGp1Wi-36" edge="1">
          <mxGeometry relative="1" as="geometry">
            <Array as="points">
              <mxPoint x="250" y="670" />
            </Array>
          </mxGeometry>
        </mxCell>
        <mxCell id="Paml40IgewJ3q0cGp1Wi-52" style="edgeStyle=orthogonalEdgeStyle;rounded=0;orthogonalLoop=1;jettySize=auto;html=1;exitX=0.5;exitY=1;exitDx=0;exitDy=0;entryX=0;entryY=0.5;entryDx=0;entryDy=0;" parent="1" source="Paml40IgewJ3q0cGp1Wi-11" target="Paml40IgewJ3q0cGp1Wi-40" edge="1">
          <mxGeometry relative="1" as="geometry">
            <Array as="points">
              <mxPoint x="250" y="250" />
              <mxPoint x="250" y="800" />
            </Array>
          </mxGeometry>
        </mxCell>
        <mxCell id="Paml40IgewJ3q0cGp1Wi-11" value="login" style="ellipse;whiteSpace=wrap;html=1;" parent="1" vertex="1">
          <mxGeometry x="180" y="170" width="120" height="80" as="geometry" />
        </mxCell>
        <mxCell id="Paml40IgewJ3q0cGp1Wi-18" style="edgeStyle=orthogonalEdgeStyle;rounded=0;orthogonalLoop=1;jettySize=auto;html=1;entryX=1;entryY=0.5;entryDx=0;entryDy=0;" parent="1" source="Paml40IgewJ3q0cGp1Wi-12" target="Paml40IgewJ3q0cGp1Wi-11" edge="1">
          <mxGeometry relative="1" as="geometry">
            <Array as="points">
              <mxPoint x="560" y="200" />
            </Array>
          </mxGeometry>
        </mxCell>
        <mxCell id="Paml40IgewJ3q0cGp1Wi-12" value="user_details" style="shape=process;whiteSpace=wrap;html=1;backgroundOutline=1;" parent="1" vertex="1">
          <mxGeometry x="510" y="40" width="120" height="60" as="geometry" />
        </mxCell>
        <mxCell id="Paml40IgewJ3q0cGp1Wi-21" value="view_success_stories" style="ellipse;whiteSpace=wrap;html=1;" parent="1" vertex="1">
          <mxGeometry x="350" y="300" width="120" height="80" as="geometry" />
        </mxCell>
        <mxCell id="Paml40IgewJ3q0cGp1Wi-25" style="edgeStyle=orthogonalEdgeStyle;rounded=0;orthogonalLoop=1;jettySize=auto;html=1;entryX=1;entryY=0.5;entryDx=0;entryDy=0;" parent="1" source="Paml40IgewJ3q0cGp1Wi-22" target="Paml40IgewJ3q0cGp1Wi-21" edge="1">
          <mxGeometry relative="1" as="geometry" />
        </mxCell>
        <mxCell id="Paml40IgewJ3q0cGp1Wi-22" value="success_story_table" style="shape=process;whiteSpace=wrap;html=1;backgroundOutline=1;" parent="1" vertex="1">
          <mxGeometry x="560" y="310" width="140" height="60" as="geometry" />
        </mxCell>
        <mxCell id="Paml40IgewJ3q0cGp1Wi-33" style="edgeStyle=orthogonalEdgeStyle;rounded=0;orthogonalLoop=1;jettySize=auto;html=1;exitX=0.5;exitY=1;exitDx=0;exitDy=0;entryX=0.5;entryY=0;entryDx=0;entryDy=0;" parent="1" source="Paml40IgewJ3q0cGp1Wi-26" target="Paml40IgewJ3q0cGp1Wi-32" edge="1">
          <mxGeometry relative="1" as="geometry" />
        </mxCell>
        <mxCell id="Paml40IgewJ3q0cGp1Wi-26" value="view company&lt;div&gt;library&lt;/div&gt;" style="ellipse;whiteSpace=wrap;html=1;" parent="1" vertex="1">
          <mxGeometry x="365" y="410" width="120" height="80" as="geometry" />
        </mxCell>
        <mxCell id="Paml40IgewJ3q0cGp1Wi-29" style="edgeStyle=orthogonalEdgeStyle;rounded=0;orthogonalLoop=1;jettySize=auto;html=1;entryX=1;entryY=0.5;entryDx=0;entryDy=0;" parent="1" source="Paml40IgewJ3q0cGp1Wi-28" target="Paml40IgewJ3q0cGp1Wi-26" edge="1">
          <mxGeometry relative="1" as="geometry" />
        </mxCell>
        <mxCell id="Paml40IgewJ3q0cGp1Wi-28" value="company_table" style="shape=process;whiteSpace=wrap;html=1;backgroundOutline=1;" parent="1" vertex="1">
          <mxGeometry x="560" y="420" width="140" height="60" as="geometry" />
        </mxCell>
        <mxCell id="Paml40IgewJ3q0cGp1Wi-35" style="edgeStyle=orthogonalEdgeStyle;rounded=0;orthogonalLoop=1;jettySize=auto;html=1;entryX=1;entryY=0.5;entryDx=0;entryDy=0;" parent="1" source="Paml40IgewJ3q0cGp1Wi-31" target="Paml40IgewJ3q0cGp1Wi-32" edge="1">
          <mxGeometry relative="1" as="geometry" />
        </mxCell>
        <mxCell id="Paml40IgewJ3q0cGp1Wi-31" value="review and rating" style="shape=process;whiteSpace=wrap;html=1;backgroundOutline=1;" parent="1" vertex="1">
          <mxGeometry x="560" y="540" width="140" height="60" as="geometry" />
        </mxCell>
        <mxCell id="Paml40IgewJ3q0cGp1Wi-32" value="view&amp;nbsp; review and rating" style="ellipse;whiteSpace=wrap;html=1;" parent="1" vertex="1">
          <mxGeometry x="365" y="530" width="120" height="80" as="geometry" />
        </mxCell>
        <mxCell id="Paml40IgewJ3q0cGp1Wi-36" value="view_jargon dictionary" style="ellipse;whiteSpace=wrap;html=1;" parent="1" vertex="1">
          <mxGeometry x="370" y="630" width="120" height="80" as="geometry" />
        </mxCell>
        <mxCell id="Paml40IgewJ3q0cGp1Wi-39" style="edgeStyle=orthogonalEdgeStyle;rounded=0;orthogonalLoop=1;jettySize=auto;html=1;entryX=1;entryY=0.5;entryDx=0;entryDy=0;" parent="1" source="Paml40IgewJ3q0cGp1Wi-37" target="Paml40IgewJ3q0cGp1Wi-36" edge="1">
          <mxGeometry relative="1" as="geometry" />
        </mxCell>
        <mxCell id="Paml40IgewJ3q0cGp1Wi-37" value="dictionary_table" style="shape=process;whiteSpace=wrap;html=1;backgroundOutline=1;" parent="1" vertex="1">
          <mxGeometry x="560" y="640" width="140" height="60" as="geometry" />
        </mxCell>
        <mxCell id="vP428S06ha-WS-dpf5hS-1" style="edgeStyle=orthogonalEdgeStyle;rounded=0;orthogonalLoop=1;jettySize=auto;html=1;exitX=1;exitY=0.5;exitDx=0;exitDy=0;" edge="1" parent="1" source="Paml40IgewJ3q0cGp1Wi-40">
          <mxGeometry relative="1" as="geometry">
            <mxPoint x="600" y="800" as="targetPoint" />
          </mxGeometry>
        </mxCell>
        <mxCell id="Paml40IgewJ3q0cGp1Wi-40" value="view_tech_news" style="ellipse;whiteSpace=wrap;html=1;" parent="1" vertex="1">
          <mxGeometry x="370" y="760" width="120" height="80" as="geometry" />
        </mxCell>
        <mxCell id="Paml40IgewJ3q0cGp1Wi-43" style="edgeStyle=orthogonalEdgeStyle;rounded=0;orthogonalLoop=1;jettySize=auto;html=1;entryX=1;entryY=0.375;entryDx=0;entryDy=0;entryPerimeter=0;" parent="1" target="Paml40IgewJ3q0cGp1Wi-40" edge="1">
          <mxGeometry relative="1" as="geometry">
            <mxPoint x="610" y="790" as="sourcePoint" />
          </mxGeometry>
        </mxCell>
        <mxCell id="Paml40IgewJ3q0cGp1Wi-47" value="know your company" style="ellipse;whiteSpace=wrap;html=1;" parent="1" vertex="1">
          <mxGeometry x="370" y="880" width="120" height="80" as="geometry" />
        </mxCell>
        <mxCell id="Paml40IgewJ3q0cGp1Wi-48" value="news_api" style="shape=cylinder3;whiteSpace=wrap;html=1;boundedLbl=1;backgroundOutline=1;size=15;" parent="1" vertex="1">
          <mxGeometry x="610" y="880" width="70" height="80" as="geometry" />
        </mxCell>
        <mxCell id="Paml40IgewJ3q0cGp1Wi-49" style="edgeStyle=orthogonalEdgeStyle;rounded=0;orthogonalLoop=1;jettySize=auto;html=1;entryX=0;entryY=0.5;entryDx=0;entryDy=0;entryPerimeter=0;" parent="1" source="Paml40IgewJ3q0cGp1Wi-47" target="Paml40IgewJ3q0cGp1Wi-48" edge="1">
          <mxGeometry relative="1" as="geometry" />
        </mxCell>
        <mxCell id="Paml40IgewJ3q0cGp1Wi-50" style="edgeStyle=orthogonalEdgeStyle;rounded=0;orthogonalLoop=1;jettySize=auto;html=1;exitX=0;exitY=0;exitDx=0;exitDy=52.5;exitPerimeter=0;entryX=0.98;entryY=0.655;entryDx=0;entryDy=0;entryPerimeter=0;" parent="1" source="Paml40IgewJ3q0cGp1Wi-48" target="Paml40IgewJ3q0cGp1Wi-47" edge="1">
          <mxGeometry relative="1" as="geometry" />
        </mxCell>
        <mxCell id="Paml40IgewJ3q0cGp1Wi-53" style="edgeStyle=orthogonalEdgeStyle;rounded=0;orthogonalLoop=1;jettySize=auto;html=1;exitX=0.5;exitY=1;exitDx=0;exitDy=0;entryX=0;entryY=0.625;entryDx=0;entryDy=0;entryPerimeter=0;" parent="1" source="Paml40IgewJ3q0cGp1Wi-11" target="Paml40IgewJ3q0cGp1Wi-47" edge="1">
          <mxGeometry relative="1" as="geometry">
            <Array as="points">
              <mxPoint x="250" y="250" />
              <mxPoint x="250" y="930" />
            </Array>
          </mxGeometry>
        </mxCell>
        <mxCell id="vP428S06ha-WS-dpf5hS-2" style="edgeStyle=orthogonalEdgeStyle;rounded=0;orthogonalLoop=1;jettySize=auto;html=1;exitX=1;exitY=0.5;exitDx=0;exitDy=0;entryX=0;entryY=0.5;entryDx=0;entryDy=0;" edge="1" source="vP428S06ha-WS-dpf5hS-4" target="vP428S06ha-WS-dpf5hS-6" parent="1">
          <mxGeometry relative="1" as="geometry" />
        </mxCell>
        <mxCell id="vP428S06ha-WS-dpf5hS-3" style="edgeStyle=orthogonalEdgeStyle;rounded=0;orthogonalLoop=1;jettySize=auto;html=1;entryX=0;entryY=0.5;entryDx=0;entryDy=0;" edge="1" source="vP428S06ha-WS-dpf5hS-4" target="vP428S06ha-WS-dpf5hS-10" parent="1">
          <mxGeometry relative="1" as="geometry" />
        </mxCell>
        <mxCell id="vP428S06ha-WS-dpf5hS-4" value="alumini" style="rounded=0;whiteSpace=wrap;html=1;" vertex="1" parent="1">
          <mxGeometry x="160" y="1320" width="120" height="60" as="geometry" />
        </mxCell>
        <mxCell id="vP428S06ha-WS-dpf5hS-5" style="edgeStyle=orthogonalEdgeStyle;rounded=0;orthogonalLoop=1;jettySize=auto;html=1;exitX=1;exitY=0.5;exitDx=0;exitDy=0;entryX=0;entryY=0.5;entryDx=0;entryDy=0;" edge="1" source="vP428S06ha-WS-dpf5hS-6" target="vP428S06ha-WS-dpf5hS-12" parent="1">
          <mxGeometry relative="1" as="geometry" />
        </mxCell>
        <mxCell id="vP428S06ha-WS-dpf5hS-6" value="register" style="ellipse;whiteSpace=wrap;html=1;" vertex="1" parent="1">
          <mxGeometry x="340" y="1320" width="120" height="80" as="geometry" />
        </mxCell>
        <mxCell id="vP428S06ha-WS-dpf5hS-7" style="edgeStyle=orthogonalEdgeStyle;rounded=0;orthogonalLoop=1;jettySize=auto;html=1;entryX=0;entryY=0.5;entryDx=0;entryDy=0;" edge="1" source="vP428S06ha-WS-dpf5hS-10" target="vP428S06ha-WS-dpf5hS-17" parent="1">
          <mxGeometry relative="1" as="geometry">
            <mxPoint x="450" y="1750" as="targetPoint" />
            <Array as="points">
              <mxPoint x="340" y="1740" />
            </Array>
          </mxGeometry>
        </mxCell>
        <mxCell id="vP428S06ha-WS-dpf5hS-8" style="edgeStyle=orthogonalEdgeStyle;rounded=0;orthogonalLoop=1;jettySize=auto;html=1;entryX=0;entryY=0.5;entryDx=0;entryDy=0;" edge="1" source="vP428S06ha-WS-dpf5hS-10" target="vP428S06ha-WS-dpf5hS-23" parent="1">
          <mxGeometry relative="1" as="geometry">
            <Array as="points">
              <mxPoint x="340" y="1960" />
            </Array>
          </mxGeometry>
        </mxCell>
        <mxCell id="vP428S06ha-WS-dpf5hS-9" style="edgeStyle=orthogonalEdgeStyle;rounded=0;orthogonalLoop=1;jettySize=auto;html=1;exitX=0.5;exitY=1;exitDx=0;exitDy=0;entryX=0;entryY=0.5;entryDx=0;entryDy=0;" edge="1" source="vP428S06ha-WS-dpf5hS-10" target="vP428S06ha-WS-dpf5hS-27" parent="1">
          <mxGeometry relative="1" as="geometry">
            <Array as="points">
              <mxPoint x="330" y="1600" />
              <mxPoint x="340" y="1600" />
              <mxPoint x="340" y="2090" />
            </Array>
          </mxGeometry>
        </mxCell>
        <mxCell id="vP428S06ha-WS-dpf5hS-38" style="edgeStyle=orthogonalEdgeStyle;rounded=0;orthogonalLoop=1;jettySize=auto;html=1;" edge="1" parent="1" source="vP428S06ha-WS-dpf5hS-10" target="vP428S06ha-WS-dpf5hS-37">
          <mxGeometry relative="1" as="geometry" />
        </mxCell>
        <mxCell id="vP428S06ha-WS-dpf5hS-10" value="login" style="ellipse;whiteSpace=wrap;html=1;" vertex="1" parent="1">
          <mxGeometry x="270" y="1460" width="120" height="80" as="geometry" />
        </mxCell>
        <mxCell id="vP428S06ha-WS-dpf5hS-11" style="edgeStyle=orthogonalEdgeStyle;rounded=0;orthogonalLoop=1;jettySize=auto;html=1;entryX=1;entryY=0.5;entryDx=0;entryDy=0;" edge="1" source="vP428S06ha-WS-dpf5hS-12" target="vP428S06ha-WS-dpf5hS-10" parent="1">
          <mxGeometry relative="1" as="geometry">
            <Array as="points">
              <mxPoint x="650" y="1490" />
            </Array>
          </mxGeometry>
        </mxCell>
        <mxCell id="vP428S06ha-WS-dpf5hS-12" value="user_details" style="shape=process;whiteSpace=wrap;html=1;backgroundOutline=1;" vertex="1" parent="1">
          <mxGeometry x="600" y="1330" width="120" height="60" as="geometry" />
        </mxCell>
        <mxCell id="vP428S06ha-WS-dpf5hS-13" value="view_success_stories" style="ellipse;whiteSpace=wrap;html=1;" vertex="1" parent="1">
          <mxGeometry x="450" y="1600" width="120" height="80" as="geometry" />
        </mxCell>
        <mxCell id="vP428S06ha-WS-dpf5hS-14" style="edgeStyle=orthogonalEdgeStyle;rounded=0;orthogonalLoop=1;jettySize=auto;html=1;entryX=1;entryY=0.5;entryDx=0;entryDy=0;" edge="1" source="vP428S06ha-WS-dpf5hS-15" target="vP428S06ha-WS-dpf5hS-13" parent="1">
          <mxGeometry relative="1" as="geometry" />
        </mxCell>
        <mxCell id="vP428S06ha-WS-dpf5hS-15" value="success_story_table" style="shape=process;whiteSpace=wrap;html=1;backgroundOutline=1;" vertex="1" parent="1">
          <mxGeometry x="650" y="1600" width="140" height="60" as="geometry" />
        </mxCell>
        <mxCell id="vP428S06ha-WS-dpf5hS-16" style="edgeStyle=orthogonalEdgeStyle;rounded=0;orthogonalLoop=1;jettySize=auto;html=1;exitX=0.5;exitY=1;exitDx=0;exitDy=0;entryX=0.5;entryY=0;entryDx=0;entryDy=0;" edge="1" source="vP428S06ha-WS-dpf5hS-17" target="vP428S06ha-WS-dpf5hS-22" parent="1">
          <mxGeometry relative="1" as="geometry" />
        </mxCell>
        <mxCell id="vP428S06ha-WS-dpf5hS-17" value="view company&lt;div&gt;library&lt;/div&gt;" style="ellipse;whiteSpace=wrap;html=1;" vertex="1" parent="1">
          <mxGeometry x="455" y="1700" width="120" height="80" as="geometry" />
        </mxCell>
        <mxCell id="vP428S06ha-WS-dpf5hS-18" style="edgeStyle=orthogonalEdgeStyle;rounded=0;orthogonalLoop=1;jettySize=auto;html=1;entryX=1;entryY=0.5;entryDx=0;entryDy=0;" edge="1" source="vP428S06ha-WS-dpf5hS-19" target="vP428S06ha-WS-dpf5hS-17" parent="1">
          <mxGeometry relative="1" as="geometry" />
        </mxCell>
        <mxCell id="vP428S06ha-WS-dpf5hS-19" value="company_table" style="shape=process;whiteSpace=wrap;html=1;backgroundOutline=1;" vertex="1" parent="1">
          <mxGeometry x="650" y="1710" width="140" height="60" as="geometry" />
        </mxCell>
        <mxCell id="vP428S06ha-WS-dpf5hS-20" style="edgeStyle=orthogonalEdgeStyle;rounded=0;orthogonalLoop=1;jettySize=auto;html=1;entryX=1;entryY=0.5;entryDx=0;entryDy=0;" edge="1" source="vP428S06ha-WS-dpf5hS-21" target="vP428S06ha-WS-dpf5hS-22" parent="1">
          <mxGeometry relative="1" as="geometry" />
        </mxCell>
        <mxCell id="vP428S06ha-WS-dpf5hS-21" value="review and rating" style="shape=process;whiteSpace=wrap;html=1;backgroundOutline=1;" vertex="1" parent="1">
          <mxGeometry x="650" y="1830" width="140" height="60" as="geometry" />
        </mxCell>
        <mxCell id="vP428S06ha-WS-dpf5hS-22" value="view&amp;nbsp; review and rating" style="ellipse;whiteSpace=wrap;html=1;" vertex="1" parent="1">
          <mxGeometry x="455" y="1820" width="120" height="80" as="geometry" />
        </mxCell>
        <mxCell id="vP428S06ha-WS-dpf5hS-23" value="view_jargon dictionary" style="ellipse;whiteSpace=wrap;html=1;" vertex="1" parent="1">
          <mxGeometry x="460" y="1920" width="120" height="80" as="geometry" />
        </mxCell>
        <mxCell id="vP428S06ha-WS-dpf5hS-24" style="edgeStyle=orthogonalEdgeStyle;rounded=0;orthogonalLoop=1;jettySize=auto;html=1;entryX=1;entryY=0.5;entryDx=0;entryDy=0;" edge="1" source="vP428S06ha-WS-dpf5hS-25" target="vP428S06ha-WS-dpf5hS-23" parent="1">
          <mxGeometry relative="1" as="geometry" />
        </mxCell>
        <mxCell id="vP428S06ha-WS-dpf5hS-25" value="dictionary_table" style="shape=process;whiteSpace=wrap;html=1;backgroundOutline=1;" vertex="1" parent="1">
          <mxGeometry x="650" y="1930" width="140" height="60" as="geometry" />
        </mxCell>
        <mxCell id="vP428S06ha-WS-dpf5hS-26" style="edgeStyle=orthogonalEdgeStyle;rounded=0;orthogonalLoop=1;jettySize=auto;html=1;exitX=1;exitY=0.5;exitDx=0;exitDy=0;" edge="1" source="vP428S06ha-WS-dpf5hS-27" parent="1">
          <mxGeometry relative="1" as="geometry">
            <mxPoint x="690" y="2090" as="targetPoint" />
          </mxGeometry>
        </mxCell>
        <mxCell id="vP428S06ha-WS-dpf5hS-27" value="view_tech_news" style="ellipse;whiteSpace=wrap;html=1;" vertex="1" parent="1">
          <mxGeometry x="460" y="2050" width="120" height="80" as="geometry" />
        </mxCell>
        <mxCell id="vP428S06ha-WS-dpf5hS-29" style="edgeStyle=orthogonalEdgeStyle;rounded=0;orthogonalLoop=1;jettySize=auto;html=1;entryX=1;entryY=0.375;entryDx=0;entryDy=0;entryPerimeter=0;" edge="1" target="vP428S06ha-WS-dpf5hS-27" parent="1">
          <mxGeometry relative="1" as="geometry">
            <mxPoint x="700" y="2080" as="sourcePoint" />
          </mxGeometry>
        </mxCell>
        <mxCell id="vP428S06ha-WS-dpf5hS-30" value="know your company" style="ellipse;whiteSpace=wrap;html=1;" vertex="1" parent="1">
          <mxGeometry x="455" y="2210" width="120" height="80" as="geometry" />
        </mxCell>
        <mxCell id="vP428S06ha-WS-dpf5hS-32" style="edgeStyle=orthogonalEdgeStyle;rounded=0;orthogonalLoop=1;jettySize=auto;html=1;entryX=0;entryY=0.5;entryDx=0;entryDy=0;entryPerimeter=0;" edge="1" source="vP428S06ha-WS-dpf5hS-30" parent="1">
          <mxGeometry relative="1" as="geometry">
            <mxPoint x="700" y="2210" as="targetPoint" />
            <Array as="points">
              <mxPoint x="638" y="2250" />
              <mxPoint x="638" y="2211" />
            </Array>
          </mxGeometry>
        </mxCell>
        <mxCell id="vP428S06ha-WS-dpf5hS-33" style="edgeStyle=orthogonalEdgeStyle;rounded=0;orthogonalLoop=1;jettySize=auto;html=1;exitX=0;exitY=0;exitDx=0;exitDy=52.5;exitPerimeter=0;entryX=0.98;entryY=0.655;entryDx=0;entryDy=0;entryPerimeter=0;" edge="1" target="vP428S06ha-WS-dpf5hS-30" parent="1">
          <mxGeometry relative="1" as="geometry">
            <mxPoint x="700" y="2222.5" as="sourcePoint" />
            <Array as="points">
              <mxPoint x="700" y="2270" />
              <mxPoint x="638" y="2270" />
              <mxPoint x="638" y="2262" />
            </Array>
          </mxGeometry>
        </mxCell>
        <mxCell id="vP428S06ha-WS-dpf5hS-34" style="edgeStyle=orthogonalEdgeStyle;rounded=0;orthogonalLoop=1;jettySize=auto;html=1;entryX=0;entryY=0.5;entryDx=0;entryDy=0;exitX=0.5;exitY=1;exitDx=0;exitDy=0;" edge="1" source="vP428S06ha-WS-dpf5hS-10" target="vP428S06ha-WS-dpf5hS-30" parent="1">
          <mxGeometry relative="1" as="geometry">
            <Array as="points">
              <mxPoint x="310" y="1540" />
              <mxPoint x="310" y="1620" />
              <mxPoint x="320" y="1620" />
              <mxPoint x="320" y="2310" />
            </Array>
            <mxPoint x="310" y="1560" as="sourcePoint" />
            <mxPoint x="405" y="2400" as="targetPoint" />
          </mxGeometry>
        </mxCell>
        <mxCell id="vP428S06ha-WS-dpf5hS-36" style="edgeStyle=orthogonalEdgeStyle;rounded=0;orthogonalLoop=1;jettySize=auto;html=1;exitX=0.5;exitY=1;exitDx=0;exitDy=0;entryX=0.003;entryY=0.64;entryDx=0;entryDy=0;entryPerimeter=0;" edge="1" parent="1" source="vP428S06ha-WS-dpf5hS-10" target="vP428S06ha-WS-dpf5hS-13">
          <mxGeometry relative="1" as="geometry" />
        </mxCell>
        <mxCell id="vP428S06ha-WS-dpf5hS-39" style="edgeStyle=orthogonalEdgeStyle;rounded=0;orthogonalLoop=1;jettySize=auto;html=1;exitX=1;exitY=0.5;exitDx=0;exitDy=0;entryX=0.5;entryY=0;entryDx=0;entryDy=0;" edge="1" parent="1" source="vP428S06ha-WS-dpf5hS-37" target="vP428S06ha-WS-dpf5hS-15">
          <mxGeometry relative="1" as="geometry" />
        </mxCell>
        <mxCell id="vP428S06ha-WS-dpf5hS-37" value="add_success_stories" style="ellipse;whiteSpace=wrap;html=1;" vertex="1" parent="1">
          <mxGeometry x="440" y="1510" width="120" height="80" as="geometry" />
        </mxCell>
        <mxCell id="vP428S06ha-WS-dpf5hS-40" value="news_api" style="ellipse;shape=cloud;whiteSpace=wrap;html=1;" vertex="1" parent="1">
          <mxGeometry x="690" y="2040" width="120" height="80" as="geometry" />
        </mxCell>
        <mxCell id="vP428S06ha-WS-dpf5hS-41" value="company" style="ellipse;shape=cloud;whiteSpace=wrap;html=1;" vertex="1" parent="1">
          <mxGeometry x="700" y="2200" width="120" height="80" as="geometry" />
        </mxCell>
        <mxCell id="vP428S06ha-WS-dpf5hS-42" value="news_api" style="ellipse;shape=cloud;whiteSpace=wrap;html=1;" vertex="1" parent="1">
          <mxGeometry x="600" y="750" width="120" height="80" as="geometry" />
        </mxCell>
      </root>
    </mxGraphModel>
  </diagram>
</mxfile>
